<svg width="128" height="128" viewBox="0 0 128 128" fill="none" xmlns="http://www.w3.org/2000/svg">
  <defs>
    <linearGradient id="bubbleGrad" x1="16" y1="16" x2="112" y2="128" gradientUnits="userSpaceOnUse">
      <stop stop-color="#49BAC8"/>
      <stop offset="1" stop-color="#05919F"/>
    </linearGradient>
    <linearGradient id="bubbleGrad2" x1="32" y1="32" x2="96" y2="112" gradientUnits="userSpaceOnUse">
      <stop stop-color="#00717C"/>
      <stop offset="1" stop-color="#005A63"/>
    </linearGradient>
  </defs>
  <!-- Back bubble (darker) -->
  <path d="M32 24C26.477 24 22 28.477 22 34V66C22 71.523 26.477 76 32 76H44L52 88L48 76H76C81.523 76 86 71.523 86 66V34C86 28.477 81.523 24 76 24H32Z" fill="url(#bubbleGrad2)"/>
  <!-- Front bubble (lighter, overlapping) -->
  <path d="M46 40C40.477 40 36 44.477 36 50V80C36 85.523 40.477 90 46 90H58L66 102L62 90H90C95.523 90 100 85.523 100 80V50C100 44.477 95.523 40 90 40H46Z" fill="url(#bubbleGrad)"/>
  <!-- Typing dots -->
  <circle cx="56" cy="66" r="4" fill="white" opacity="0.8"/>
  <circle cx="68" cy="66" r="4" fill="white" opacity="0.8"/>
  <circle cx="80" cy="66" r="4" fill="white" opacity="0.8"/>
</svg>
